<svg xmlns:rdf="http://www.w3.org/1999/02/22-rdf-syntax-ns#" xmlns="http://www.w3.org/2000/svg" xml:space="preserve" height="413.4" viewBox="0 0 354.32999 413.40125" width="354.33" version="1.1" xmlns:cc="http://creativecommons.org/ns#" xmlns:dc="http://purl.org/dc/elements/1.1/"><title>Veon Logo</title><defs><clipPath id="a" clipPathUnits="userSpaceOnUse"><path d="m0 330.72h283.46v-330.72h-283.46v330.72z"/></clipPath></defs><g transform="matrix(1.25 0 0 -1.25 0 413.4)"><g transform="translate(212.59 330.72)"><path d="m0 0-70.876-122.74-70.844 122.74h-70.87l141.71-245.48 141.75 245.48h-70.87z" fill="#ffcb24"/></g><g clip-path="url(#a)"><g transform="translate(164.95 43.963)"><path d="m0 0c-12.141 0-22.01-9.857-22.01-21.99 0-12.102 9.869-21.973 22.01-21.973 12.098 0 21.988 9.871 21.988 21.973 0 12.133-9.89 21.99-21.988 21.99m0-40.92c-10.393 0-18.848 8.504-18.848 18.93 0 10.455 8.455 18.941 18.848 18.941 10.371 0 18.816-8.486 18.816-18.941 0-10.426-8.445-18.93-18.816-18.93" fill="#2c2c2c"/></g><g transform="translate(218.06 43.068)"><path d="m0 0v-37.365l-21.564 37.365h-3.991v-42.172h3.151v37.361l21.574-37.361h3.99v42.172h-3.16z" fill="#2c2c2c"/></g><g transform="translate(115.47 43.068)"><path d="m0 0v-42.172h24.15v3.037h-20.984v16.883h17.934v3.051h-17.934v16.156h20.984v3.045h-24.15z" fill="#2c2c2c"/></g><g transform="translate(107.83 43.068)"><path d="m0 0-21.027-36.475-21.039 36.475h-3.549l24.588-42.572 24.584 42.572h-3.557z" fill="#2c2c2c"/></g></g></g></svg>
